<svg xmlns="http://www.w3.org/2000/svg" viewBox="0 0 26 26"><defs><style>.cls-1{fill:#222221;}</style></defs><title>Ресурс 4</title><g id="Слой_2" data-name="Слой 2"><g id="Capa_1" data-name="Capa 1"><g id="_Группа_" data-name="&lt;Группа&gt;"><g id="_Группа_2" data-name="&lt;Группа&gt;"><path id="_Составной_контур_" data-name="&lt;Составной контур&gt;" class="cls-1" d="M13,2.34c3.47,0,3.88,0,5.25.08a7.19,7.19,0,0,1,2.41.45,4,4,0,0,1,1.49,1,4,4,0,0,1,1,1.49,7.2,7.2,0,0,1,.45,2.41c.06,1.37.08,1.78.08,5.25s0,3.88-.08,5.25a7.19,7.19,0,0,1-.45,2.41,4.31,4.31,0,0,1-2.47,2.47,7.19,7.19,0,0,1-2.41.45c-1.37.06-1.78.08-5.25.08s-3.88,0-5.25-.08a7.19,7.19,0,0,1-2.41-.45,4,4,0,0,1-1.5-1,4,4,0,0,1-1-1.5,7.2,7.2,0,0,1-.45-2.41c-.06-1.37-.08-1.78-.08-5.25s0-3.88.08-5.25a7.21,7.21,0,0,1,.45-2.41,4,4,0,0,1,1-1.49,4,4,0,0,1,1.5-1,7.19,7.19,0,0,1,2.41-.45c1.37-.06,1.78-.08,5.25-.08M13,0C9.47,0,9,0,7.64.08a9.55,9.55,0,0,0-3.16.6,6.37,6.37,0,0,0-2.3,1.5,6.37,6.37,0,0,0-1.5,2.3,9.53,9.53,0,0,0-.6,3.16C0,9,0,9.47,0,13s0,4,.08,5.36a9.53,9.53,0,0,0,.6,3.16,6.37,6.37,0,0,0,1.5,2.3,6.37,6.37,0,0,0,2.3,1.5,9.55,9.55,0,0,0,3.16.6C9,26,9.47,26,13,26s4,0,5.36-.08a9.55,9.55,0,0,0,3.16-.6,6.65,6.65,0,0,0,3.8-3.8,9.55,9.55,0,0,0,.6-3.16C26,17,26,16.53,26,13s0-4-.08-5.36a9.55,9.55,0,0,0-.6-3.16,6.37,6.37,0,0,0-1.5-2.3,6.37,6.37,0,0,0-2.3-1.5,9.55,9.55,0,0,0-3.16-.6C17,0,16.53,0,13,0"/><path id="_Составной_контур_2" data-name="&lt;Составной контур&gt;" class="cls-1" d="M13,6.33A6.68,6.68,0,1,0,19.68,13,6.68,6.68,0,0,0,13,6.33m0,11A4.33,4.33,0,1,1,17.34,13,4.33,4.33,0,0,1,13,17.34"/><path id="_Контур_" data-name="&lt;Контур&gt;" class="cls-1" d="M21.5,6.06A1.56,1.56,0,1,1,19.94,4.5,1.56,1.56,0,0,1,21.5,6.06"/></g></g></g></g></svg>