<svg xmlns="http://www.w3.org/2000/svg" viewBox="0 0 25.27 20.54"><defs><style>.cls-1{fill:#222221;}</style></defs><title>Ресурс 3</title><g id="Слой_2" data-name="Слой 2"><g id="Capa_1" data-name="Capa 1"><g id="_Группа_" data-name="&lt;Группа&gt;"><path id="_Контур_" data-name="&lt;Контур&gt;" class="cls-1" d="M0,18.21a14.67,14.67,0,0,0,7.95,2.33A14.66,14.66,0,0,0,22.68,5.11a10.52,10.52,0,0,0,2.59-2.68,10.36,10.36,0,0,1-3,.82A5.19,5.19,0,0,0,24.57.38a10.39,10.39,0,0,1-3.29,1.26,5.19,5.19,0,0,0-8.83,4.73A14.71,14.71,0,0,1,1.76.95a5.19,5.19,0,0,0,1.6,6.92A5.17,5.17,0,0,1,1,7.22a5.19,5.19,0,0,0,4.16,5.15,5.19,5.19,0,0,1-2.34.09,5.19,5.19,0,0,0,4.84,3.6A10.42,10.42,0,0,1,0,18.21Z"/></g></g></g></svg>