<svg xmlns="http://www.w3.org/2000/svg" viewBox="0 0 26.01 26.02"><defs><style>.cls-1{fill:#222221;fill-rule:evenodd;}</style></defs><title>Ресурс 2</title><g id="Слой_2" data-name="Слой 2"><g id="Capa_1" data-name="Capa 1"><g id="_Группа_" data-name="&lt;Группа&gt;"><g id="_Группа_2" data-name="&lt;Группа&gt;"><path id="_Составной_контур_" data-name="&lt;Составной контур&gt;" class="cls-1" d="M26,12.35A12.77,12.77,0,0,0,.48,12.12c0,.19,0,.37,0,.56A12.58,12.58,0,0,0,2.3,19.22L0,26l7.07-2.25A12.79,12.79,0,0,0,26,12.67C26,12.57,26,12.46,26,12.35Zm-12.76,11a10.69,10.69,0,0,1-5.91-1.76L3.21,22.88l1.34-4a10.55,10.55,0,0,1-2-6.25,10,10,0,0,1,.05-1,10.74,10.74,0,0,1,21.39.2c0,.28,0,.55,0,.83A10.71,10.71,0,0,1,13.24,23.33Z"/><path id="_Контур_" data-name="&lt;Контур&gt;" class="cls-1" d="M19.1,15.23c-.32-.16-1.85-.91-2.14-1s-.5-.16-.71.16-.81,1-1,1.21-.36.23-.68.08a8.46,8.46,0,0,1-2.52-1.54A9.29,9.29,0,0,1,10.32,12c-.18-.31,0-.48.14-.63s.31-.36.47-.54l.11-.15a3.48,3.48,0,0,0,.2-.37.56.56,0,0,0,0-.54c-.08-.16-.71-1.69-1-2.31s-.52-.51-.71-.51-.39,0-.6,0a1.16,1.16,0,0,0-.84.39A3.48,3.48,0,0,0,7,9.87a4,4,0,0,0,.16,1.06,7.05,7.05,0,0,0,1.12,2.15,12.85,12.85,0,0,0,5.34,4.69c3.19,1.24,3.19.82,3.76.77a3.12,3.12,0,0,0,2.11-1.48,2.57,2.57,0,0,0,.19-1.48C19.62,15.47,19.41,15.39,19.1,15.23Z"/></g></g></g></g></svg>